<?xml version="1.0" encoding="utf-8"?>
<!-- Generator: Adobe Illustrator 24.1.3, SVG Export Plug-In . SVG Version: 6.00 Build 0)  -->
<svg version="1.1" id="Слой_1" xmlns="http://www.w3.org/2000/svg" xmlns:xlink="http://www.w3.org/1999/xlink" x="0px" y="0px"
	 viewBox="0 0 17.9 17.9" style="enable-background:new 0 0 17.9 17.9;" xml:space="preserve">
<style type="text/css">
	.st0{fill-rule:evenodd;clip-rule:evenodd;fill:#FFFFFF;}
</style>
<path class="st0" d="M17.3,0.4c-0.6-0.6-1.5-0.6-2.1,0L8.9,6.7L2.6,0.4C2-0.1,1-0.1,0.4,0.4C-0.1,1-0.1,2,0.4,2.6l6.3,6.3L0.7,15
	c-0.6,0.6-0.6,1.5,0,2.1c0.6,0.6,1.5,0.6,2.1,0L8.9,11l6.5,6.5c0.6,0.6,1.5,0.6,2.1,0s0.6-1.5,0-2.1L11,8.9l6.3-6.3
	C17.9,2,17.9,1,17.3,0.4z"/>
</svg>
