<svg width="18" height="18" viewBox="0 0 18 18" fill="none" xmlns="http://www.w3.org/2000/svg">
<circle cx="9" cy="9" r="9" fill="#C4C9CE"/>
<path fill-rule="evenodd" clip-rule="evenodd" d="M6.8467 6.93411H6.99634C7.32049 6.93412 7.62089 6.75869 7.78775 6.47196C8.07199 5.9835 8.44689 5.73927 8.91246 5.73927C9.80426 5.73927 10.2353 6.07041 10.2377 6.80486C10.2401 7.53932 9.74142 7.71865 8.93739 8.21381C8.07726 8.73469 7.73446 9.31345 7.81548 10.3231C7.82244 10.5311 7.98791 10.696 8.18967 10.696H9.1493C9.33174 10.696 9.47964 10.5435 9.47964 10.3552C9.47964 9.72502 9.71025 9.40991 10.5392 8.91475C11.418 8.38101 11.873 7.70579 11.873 6.73476C11.873 5.26857 10.695 4.24609 8.91246 4.24609C7.44862 4.24609 6.55822 4.87256 6.24126 6.12549C6.15399 6.47047 6.3543 6.82314 6.68867 6.91318C6.74027 6.92708 6.79337 6.93411 6.8467 6.93411ZM8.67561 13.7699C9.24279 13.7699 9.69779 13.3262 9.69779 12.7603C9.69779 12.1944 9.24279 11.7507 8.67561 11.7507C8.11466 11.7507 7.65966 12.1944 7.65966 12.7603C7.65966 13.3262 8.11466 13.7699 8.67561 13.7699Z" fill="white"/>
</svg>
