<svg width="14" height="14" viewBox="0 0 14 14" fill="none" xmlns="http://www.w3.org/2000/svg">
<path fill-rule="evenodd" clip-rule="evenodd" d="M5.99998 0.349609C2.87957 0.349609 0.349976 2.8792 0.349976 5.99961C0.349976 9.12002 2.87957 11.6496 5.99998 11.6496C7.26696 11.6496 8.43654 11.2326 9.37894 10.5283C9.38565 10.5353 9.39253 10.5422 9.39959 10.5489L11.9956 13.0385C12.2696 13.3013 12.7033 13.2967 12.9718 13.0283C13.2482 12.7518 13.2435 12.3021 12.9613 12.0315L10.3859 9.56165C11.1762 8.5897 11.65 7.34998 11.65 5.99961C11.65 2.8792 9.12038 0.349609 5.99998 0.349609ZM1.64998 5.99961C1.64998 3.59717 3.59754 1.64961 5.99998 1.64961C8.40241 1.64961 10.35 3.59717 10.35 5.99961C10.35 8.40205 8.40241 10.3496 5.99998 10.3496C3.59754 10.3496 1.64998 8.40205 1.64998 5.99961Z" fill="#3E4B5D"/>
</svg>
