<svg aria-hidden="true" style="position: absolute; width: 0; height: 0; overflow: hidden;" version="1.1" xmlns="http://www.w3.org/2000/svg" xmlns:xlink="http://www.w3.org/1999/xlink">
<defs>
<symbol id="icon-open-eye" viewBox="0 0 37 32">
<path stroke-linejoin="miter" stroke-linecap="butt" stroke-miterlimit="4" stroke-width="2.4615" d="M20.923 19.692c0 2.039-1.653 3.692-3.692 3.692s-3.692-1.653-3.692-3.692c0-2.039 1.653-3.692 3.692-3.692s3.692 1.653 3.692 3.692z"></path>
<path stroke-linejoin="miter" stroke-linecap="butt" stroke-miterlimit="4" stroke-width="2.4615" d="M33.231 19.692c0-0.891-0.401-2.034-1.267-3.308-0.855-1.257-2.103-2.548-3.632-3.713-3.072-2.341-7.125-4.056-11.1-4.056s-8.028 1.715-11.1 4.056c-1.529 1.165-2.777 2.457-3.632 3.713-0.867 1.274-1.268 2.417-1.268 3.308 0 1.924 1.519 4.685 4.461 7.039 2.883 2.306 6.925 4.038 11.539 4.038s8.656-1.732 11.539-4.038c2.943-2.354 4.461-5.115 4.461-7.039z"></path>
<path stroke-linejoin="miter" stroke-linecap="round" stroke-miterlimit="4" stroke-width="2.4615" d="M4.923 12.308l-3.692-3.692"></path>
<path stroke-linejoin="miter" stroke-linecap="round" stroke-miterlimit="4" stroke-width="2.4615" d="M11.077 8.615l-2.462-4.923"></path>
<path stroke-linejoin="miter" stroke-linecap="round" stroke-miterlimit="4" stroke-width="2.4615" d="M23.385 9.846l2.462-6.154"></path>
<path stroke-linejoin="miter" stroke-linecap="round" stroke-miterlimit="4" stroke-width="2.4615" d="M17.231 8.615v-6.154"></path>
<path stroke-linejoin="miter" stroke-linecap="round" stroke-miterlimit="4" stroke-width="2.4615" d="M29.538 13.538l3.692-4.923"></path>
</symbol>
<symbol id="icon-calendar" viewBox="0 0 28 32">
<path fill="none" stroke="#fff" style="stroke: var(--color1, #fff)" stroke-linejoin="miter" stroke-linecap="butt" stroke-miterlimit="4" stroke-width="2" d="M4 5h20c1.657 0 3 1.343 3 3v20c0 1.657-1.343 3-3 3h-20c-1.657 0-3-1.343-3-3v-20c0-1.657 1.343-3 3-3z"></path>
<path fill="none" stroke="#fff" style="stroke: var(--color1, #fff)" stroke-linejoin="miter" stroke-linecap="butt" stroke-miterlimit="4" stroke-width="1" d="M2.5 12.5h23v1h-23v-1z"></path>
<path fill="none" stroke="#fff" style="stroke: var(--color1, #fff)" stroke-linejoin="miter" stroke-linecap="butt" stroke-miterlimit="4" stroke-width="1" d="M7 0.5c0.276 0 0.5 0.224 0.5 0.5v4c0 0.276-0.224 0.5-0.5 0.5s-0.5-0.224-0.5-0.5v-4c0-0.276 0.224-0.5 0.5-0.5z"></path>
<path fill="none" stroke="#fff" style="stroke: var(--color1, #fff)" stroke-linejoin="miter" stroke-linecap="butt" stroke-miterlimit="4" stroke-width="1" d="M21 0.5c0.276 0 0.5 0.224 0.5 0.5v4c0 0.276-0.224 0.5-0.5 0.5s-0.5-0.224-0.5-0.5v-4c0-0.276 0.224-0.5 0.5-0.5z"></path>
</symbol>
<symbol id="icon-close" viewBox="0 0 18 18">
<path fill="white" d="M17.3,0.4c-0.6-0.6-1.5-0.6-2.1,0L8.9,6.7L2.6,0.4C2-0.1,1-0.1,0.4,0.4C-0.1,1-0.1,2,0.4,2.6l6.3,6.3L0.7,15
	c-0.6,0.6-0.6,1.5,0,2.1c0.6,0.6,1.5,0.6,2.1,0L8.9,11l6.5,6.5c0.6,0.6,1.5,0.6,2.1,0s0.6-1.5,0-2.1L11,8.9l6.3-6.3
	C17.9,2,17.9,1,17.3,0.4z"/>
</symbol>
<symbol id="icon-close-eye" viewBox="0 0 37 32">
<path stroke-linejoin="miter" stroke-linecap="butt" stroke-miterlimit="4" stroke-width="2.4615" d="M33.231 12.308c0 0.891-0.401 2.034-1.267 3.308-0.855 1.257-2.103 2.548-3.632 3.713-3.072 2.341-7.125 4.056-11.1 4.056s-8.028-1.715-11.1-4.056c-1.529-1.165-2.777-2.457-3.632-3.713-0.867-1.274-1.268-2.417-1.268-3.308 0-1.924 1.519-4.685 4.461-7.039 2.883-2.306 6.925-4.038 11.539-4.038s8.656 1.732 11.539 4.038c2.943 2.354 4.461 5.115 4.461 7.039z"></path>
<path stroke-linejoin="miter" stroke-linecap="round" stroke-miterlimit="4" stroke-width="2.4615" d="M4.923 19.692l-3.692 3.692"></path>
<path stroke-linejoin="miter" stroke-linecap="round" stroke-miterlimit="4" stroke-width="2.4615" d="M11.077 23.385l-2.462 4.923"></path>
<path stroke-linejoin="miter" stroke-linecap="round" stroke-miterlimit="4" stroke-width="2.4615" d="M23.385 22.154l2.462 6.154"></path>
<path stroke-linejoin="miter" stroke-linecap="round" stroke-miterlimit="4" stroke-width="2.4615" d="M17.231 23.385v6.154"></path>
<path stroke-linejoin="miter" stroke-linecap="round" stroke-miterlimit="4" stroke-width="2.4615" d="M29.538 18.462l3.692 4.923"></path>
</symbol>
<symbol id="icon-down-arrow" viewBox="0 0 64 32">
<path stroke-linejoin="miter" stroke-linecap="round" stroke-miterlimit="4" stroke-width="8" d="M8 8l24 16 24-16"></path>
</symbol>
<symbol id="icon-logo" viewBox="0 0 140 32">
<path fill="#fff" style="fill: var(--color1, #fff)" d="M6.414 30.222v-10.581h13.995c0.882 0 1.721-0.128 2.517-0.384s1.479-0.612 2.048-1.067c0.597-0.484 1.067-1.067 1.408-1.749s0.597-1.394 0.768-2.133c0.171-0.768 0.284-1.522 0.341-2.261 0.057-0.768 0.085-1.451 0.085-2.048 0-0.626-0.028-1.294-0.085-2.005-0.028-0.711-0.128-1.422-0.299-2.133-0.142-0.711-0.37-1.38-0.683-2.005-0.284-0.654-0.683-1.223-1.195-1.707-0.455-0.455-0.953-0.796-1.493-1.024-0.512-0.256-1.038-0.441-1.579-0.555-0.512-0.114-1.024-0.171-1.536-0.171-0.484-0.028-0.924-0.043-1.323-0.043h-14.208c-0.512 0-1.081 0.071-1.707 0.213s-1.18 0.455-1.664 0.939c-0.512 0.512-0.811 1.052-0.896 1.621s-0.128 1.138-0.128 1.707v25.387h5.632zM6.414 15.161v-8.533c0-0.256 0.014-0.498 0.043-0.725 0.028-0.256 0.142-0.484 0.341-0.683 0.228-0.228 0.455-0.341 0.683-0.341 0.228-0.028 0.441-0.043 0.64-0.043h9.088c0.484 0 1.067 0.057 1.749 0.171 0.683 0.085 1.266 0.37 1.749 0.853s0.782 1.124 0.896 1.92c0.114 0.796 0.171 1.522 0.171 2.176 0 0.284-0.014 0.612-0.043 0.981 0 0.37-0.043 0.74-0.128 1.109-0.057 0.37-0.156 0.74-0.299 1.109-0.114 0.341-0.284 0.64-0.512 0.896-0.484 0.569-1.067 0.896-1.749 0.981-0.654 0.085-1.294 0.128-1.92 0.128h-10.709z"></path>
<path fill="#fff" style="fill: var(--color1, #fff)" d="M52.73 0.014c-0.91 0-1.892 0.014-2.944 0.043-1.024 0.028-2.062 0.142-3.115 0.341s-2.091 0.512-3.115 0.939c-0.996 0.427-1.906 1.038-2.731 1.835-0.825 0.768-1.465 1.65-1.92 2.645-0.455 0.967-0.796 1.991-1.024 3.072-0.228 1.052-0.37 2.133-0.427 3.243-0.057 1.081-0.085 2.133-0.085 3.157 0 0.853 0.014 1.806 0.043 2.859 0.057 1.052 0.185 2.133 0.384 3.243 0.228 1.081 0.569 2.148 1.024 3.2 0.484 1.052 1.152 1.991 2.005 2.816 0.825 0.796 1.735 1.408 2.731 1.835 1.024 0.427 2.062 0.74 3.115 0.939 1.081 0.199 2.133 0.313 3.157 0.341 1.052 0.028 2.020 0.043 2.901 0.043 0.853 0 1.806-0.014 2.859-0.043s2.105-0.142 3.157-0.341c1.081-0.199 2.119-0.512 3.115-0.939 1.024-0.427 1.948-1.038 2.773-1.835 0.768-0.74 1.38-1.607 1.835-2.603s0.796-2.034 1.024-3.115c0.228-1.081 0.37-2.162 0.427-3.243 0.085-1.109 0.128-2.162 0.128-3.157 0-0.967-0.028-2.005-0.085-3.115s-0.213-2.204-0.469-3.285c-0.228-1.081-0.569-2.119-1.024-3.115s-1.067-1.863-1.835-2.603c-0.825-0.796-1.749-1.408-2.773-1.835-0.996-0.427-2.034-0.74-3.115-0.939-1.052-0.199-2.105-0.313-3.157-0.341-1.024-0.028-1.977-0.043-2.859-0.043zM43.173 15.289c0-2.304 0.156-4.082 0.469-5.333 0.341-1.28 0.796-2.29 1.365-3.029 0.882-1.081 1.991-1.749 3.328-2.005 1.337-0.284 2.788-0.427 4.352-0.427 1.536 0 2.987 0.142 4.352 0.427 1.365 0.256 2.489 0.924 3.371 2.005 0.228 0.284 0.455 0.64 0.683 1.067s0.427 0.967 0.597 1.621c0.171 0.654 0.299 1.451 0.384 2.389 0.114 0.91 0.171 2.005 0.171 3.285 0 1.195-0.057 2.247-0.171 3.157-0.085 0.91-0.213 1.692-0.384 2.347s-0.37 1.209-0.597 1.664c-0.199 0.455-0.427 0.839-0.683 1.152-0.455 0.569-0.967 1.024-1.536 1.365-0.569 0.313-1.195 0.555-1.877 0.725-0.654 0.171-1.351 0.284-2.091 0.341-0.711 0.028-1.451 0.043-2.219 0.043s-1.522-0.014-2.261-0.043c-0.74-0.057-1.436-0.171-2.091-0.341s-1.266-0.412-1.835-0.725c-0.569-0.341-1.067-0.796-1.493-1.365-0.256-0.313-0.498-0.683-0.725-1.109-0.199-0.455-0.384-1.010-0.555-1.664-0.171-0.683-0.313-1.465-0.427-2.347-0.085-0.91-0.128-1.977-0.128-3.2z"></path>
<path fill="#fff" style="fill: var(--color1, #fff)" d="M102.985 30.222v-4.48h-10.112c-1.764 0-3.314-0.185-4.651-0.555s-2.389-1.138-3.157-2.304c-0.142-0.228-0.299-0.526-0.469-0.896s-0.327-0.839-0.469-1.408c-0.142-0.569-0.256-1.252-0.341-2.048-0.085-0.825-0.128-1.792-0.128-2.901 0-2.219 0.156-3.94 0.469-5.163 0.341-1.252 0.74-2.204 1.195-2.859 0.427-0.626 0.91-1.124 1.451-1.493 0.569-0.37 1.18-0.654 1.835-0.853 0.683-0.199 1.408-0.313 2.176-0.341 0.768-0.057 1.564-0.085 2.389-0.085h9.344v-4.48h-11.989c-0.54 0-1.209 0.028-2.005 0.085s-1.65 0.213-2.56 0.469c-0.91 0.256-1.82 0.64-2.731 1.152-0.91 0.484-1.735 1.166-2.475 2.048-0.626 0.74-1.138 1.564-1.536 2.475-0.37 0.882-0.654 1.835-0.853 2.859-0.199 0.996-0.341 2.034-0.427 3.115-0.057 1.052-0.085 2.105-0.085 3.157 0 0.825 0.028 1.721 0.085 2.688 0.057 0.939 0.185 1.892 0.384 2.859s0.498 1.92 0.896 2.859c0.398 0.939 0.953 1.806 1.664 2.603 0.683 0.768 1.422 1.394 2.219 1.877 0.825 0.455 1.65 0.811 2.475 1.067 0.853 0.228 1.692 0.384 2.517 0.469 0.825 0.057 1.593 0.085 2.304 0.085h12.587z"></path>
<path fill="#fff" style="fill: var(--color1, #fff)" d="M127.525 30.222v-25.387h11.691v-4.48h-28.971v4.48h11.648v25.387h5.632z"></path>
</symbol>
<symbol id="icon-mail" viewBox="0 0 65 42">
<path fill-rule="evenodd" clip-rule="evenodd" d="M4.4 0H60.6C63.0301 0 65 1.96995 65 4.4V37.6C65 40.0301 63.0301 42 60.6 42H4.4C1.96995 42 0 40.0301 0 37.6V4.4C0 1.96995 1.96995 0 4.4 0Z" fill="#3E4B5D"/>
<path fill-rule="evenodd" clip-rule="evenodd" d="M10 13L32.0598 25.7456C32.3322 25.903 32.6678 25.903 32.9402 25.7456L55 13" fill="#3E4B5D"/>
<path d="M10 13L32.0598 25.7456C32.3322 25.903 32.6678 25.903 32.9402 25.7456L55 13" stroke="white" stroke-width="3" stroke-linecap="round"/>
<path fill-rule="evenodd" clip-rule="evenodd" d="M10 31L25.6449 22.0426L10 31ZM39.2807 22L55 31L39.2807 22Z" fill="#3E4B5D"/>
<path d="M39.2807 22L55 31M10 31L25.6449 22.0426L10 31Z" stroke="white" stroke-width="3" stroke-linecap="round"/>
</symbol>
<symbol id="icon-notify" viewBox="0 0 24 32">
<path fill="none" stroke="#fff" style="stroke: var(--color1, #fff)" stroke-linejoin="miter" stroke-linecap="butt" stroke-miterlimit="4" stroke-width="2" d="M3.243 8.367c0.604-4.227 4.224-7.367 8.495-7.367 4.139 0 7.688 2.955 8.439 7.025l1.338 7.26 1.302 7.715h-21.664l2.090-14.633z"></path>
<path fill="none" stroke="#fff" style="stroke: var(--color1, #fff)" stroke-linejoin="miter" stroke-linecap="butt" stroke-miterlimit="4" stroke-width="2" d="M16 26c0 2.209-1.791 4-4 4s-4-1.791-4-4"></path>
</symbol>
<symbol id="icon-question" viewBox="0 0 32 32">
<path fill="#c4c9ce" style="fill: var(--color3, #c4c9ce)" d="M32 16c0 8.837-7.163 16-16 16s-16-7.163-16-16c0-8.837 7.163-16 16-16s16 7.163 16 16z"></path>
<path fill="#fff" style="fill: var(--color1, #fff)" d="M12.172 12.327h0.266c0.576 0 1.11-0.312 1.407-0.822 0.505-0.868 1.172-1.303 1.999-1.303 1.585 0 2.352 0.589 2.356 1.894s-0.882 1.624-2.312 2.505c-1.529 0.926-2.139 1.955-1.995 3.75 0.012 0.37 0.307 0.663 0.665 0.663h1.706c0.324 0 0.587-0.271 0.587-0.606 0-1.12 0.41-1.68 1.884-2.561 1.562-0.949 2.371-2.149 2.371-3.876 0-2.607-2.094-4.424-5.263-4.424-2.602 0-4.185 1.114-4.749 3.341-0.155 0.613 0.201 1.24 0.795 1.4 0.092 0.025 0.186 0.037 0.281 0.037zM15.423 24.48c1.008 0 1.817-0.789 1.817-1.795s-0.809-1.795-1.817-1.795c-0.997 0-1.806 0.789-1.806 1.795s0.809 1.795 1.806 1.795z"></path>
</symbol>
<symbol id="icon-search" viewBox="0 0 32 32">
<path fill="#3e4b5d" style="fill: var(--color2, #3e4b5d)" d="M13.714 0.799c-7.132 0-12.914 5.782-12.914 12.914s5.782 12.914 12.914 12.914c2.896 0 5.569-0.953 7.723-2.563 0.015 0.016 0.031 0.032 0.047 0.047l5.934 5.691c0.626 0.601 1.618 0.59 2.231-0.023 0.632-0.632 0.621-1.66-0.024-2.278l-5.887-5.645c1.806-2.222 2.889-5.055 2.889-8.142 0-7.132-5.782-12.914-12.914-12.914zM3.771 13.713c0-5.491 4.452-9.943 9.943-9.943s9.943 4.452 9.943 9.943c0 5.491-4.452 9.943-9.943 9.943s-9.943-4.452-9.943-9.943z"></path>
</symbol>
<symbol id="icon-success" viewBox="0 0 36 32">
<path fill="none" stroke="#3e4b5d" style="stroke: var(--color2, #3e4b5d)" stroke-linejoin="miter" stroke-linecap="round" stroke-miterlimit="4" stroke-width="3.5556" d="M1.778 16l12.444 10.667 19.556-24.889"></path>
</symbol>
<symbol id="icon-user" viewBox="0 0 28 32">
<path fill="none" stroke="#3e4b5d" style="stroke: var(--color1, #3e4b5d)" stroke-linejoin="miter" stroke-linecap="butt" stroke-miterlimit="4" stroke-width="2" d="M21 8c0 3.866-3.134 7-7 7s-7-3.134-7-7c0-3.866 3.134-7 7-7s7 3.134 7 7z"></path>
<path fill="none" stroke="#3e4b5d" style="stroke: var(--color1, #3e4b5d)" stroke-linejoin="miter" stroke-linecap="butt" stroke-miterlimit="4" stroke-width="2" d="M1.035 31c0.433-6.173 4.839-11.432 10.885-11.908 0.752-0.059 1.454-0.092 2.080-0.092s1.329 0.033 2.080 0.092c6.046 0.475 10.452 5.735 10.885 11.908h-25.93z"></path>
</symbol>
<symbol id="icon-settings" viewBox="0 0 32 32">
<path fill="#55585a" style="fill: var(--color1, #55585a)" d="M17.052 31.966l3.131-5.723 6.3 1.845c0.55-0.477 1.067-0.991 1.547-1.538l-1.847-6.307 5.781-3.162c0.024-0.357 0.036-0.717 0.036-1.080s-0.012-0.724-0.036-1.081l-5.781-3.162 1.847-6.306c-0.48-0.547-0.997-1.061-1.547-1.539l-6.3 1.845-3.13-5.722c-0.348-0.023-0.699-0.034-1.053-0.034-0.396 0-0.789 0.014-1.178 0.043l-3.125 5.713-6.209-1.818c-0.573 0.5-1.11 1.040-1.607 1.616l1.816 6.203-5.656 3.094c-0.027 0.38-0.041 0.763-0.041 1.15s0.014 0.769 0.041 1.149l5.656 3.094-1.816 6.203c0.497 0.576 1.034 1.116 1.607 1.616l6.21-1.818 3.126 5.714c0.389 0.028 0.781 0.043 1.177 0.043 0.354 0 0.704-0.011 1.052-0.034zM20.745 7.676l4.976-1.457-1.909 6.52 5.961 3.261-5.961 3.261 1.909 6.52-6.521-1.909-3.261 5.961-3.261-5.961-6.52 1.909 1.909-6.52-5.961-3.261 5.961-3.261-1.909-6.52 6.52 1.909 3.261-5.961 3.261 5.961 1.544-0.452z"></path>
<path fill="none" stroke="#3e4b5d" style="stroke: var(--color2, #3e4b5d)" stroke-linejoin="miter" stroke-linecap="butt" stroke-miterlimit="4" stroke-width="2" d="M19 16c0 1.657-1.343 3-3 3s-3-1.343-3-3c0-1.657 1.343-3 3-3s3 1.343 3 3z"></path>
</symbol>
<symbol id="icon-favourite" viewBox="0 0 32 32">
<path fill="none" stroke="#3e4b5d" style="stroke: var(--color2, #3e4b5d)" stroke-linejoin="miter" stroke-linecap="butt" stroke-miterlimit="4" stroke-width="2.1333" d="M15.317 20.514l-11.050 9.209v-25.456c0-1.767 1.433-3.2 3.2-3.2h17.067c1.767 0 3.2 1.433 3.2 3.2v25.456l-11.733-9.778-0.683 0.569z"></path>
</symbol>
<symbol id="icon-alert" viewBox="0 0 24 32">
<path fill="none" stroke="#3e4b5d" style="stroke: var(--color2, #3e4b5d)" stroke-linejoin="miter" stroke-linecap="butt" stroke-miterlimit="4" stroke-width="2" d="M3.243 8.367c0.604-4.227 4.224-7.367 8.495-7.367 4.139 0 7.688 2.955 8.439 7.025l1.338 7.26 1.302 7.715h-21.664l2.090-14.633z"></path>
<path fill="none" stroke="#3e4b5d" style="stroke: var(--color2, #3e4b5d)" stroke-linejoin="miter" stroke-linecap="butt" stroke-miterlimit="4" stroke-width="2" d="M16 26c0 2.209-1.791 4-4 4s-4-1.791-4-4"></path>
</symbol>
<symbol id="icon-event" viewBox="0 0 28 32">
<path fill="none" stroke="#3e4b5d" style="stroke: var(--color2, #3e4b5d)" stroke-linejoin="miter" stroke-linecap="butt" stroke-miterlimit="4" stroke-width="2" d="M4 5h20c1.657 0 3 1.343 3 3v20c0 1.657-1.343 3-3 3h-20c-1.657 0-3-1.343-3-3v-20c0-1.657 1.343-3 3-3z"></path>
<path fill="none" stroke="#3e4b5d" style="stroke: var(--color2, #3e4b5d)" stroke-linejoin="miter" stroke-linecap="butt" stroke-miterlimit="4" stroke-width="1" d="M2.5 12.5h23v1h-23v-1z"></path>
<path fill="none" stroke="#3e4b5d" style="stroke: var(--color2, #3e4b5d)" stroke-linejoin="miter" stroke-linecap="butt" stroke-miterlimit="4" stroke-width="1" d="M7 0.5c0.276 0 0.5 0.224 0.5 0.5v4c0 0.276-0.224 0.5-0.5 0.5s-0.5-0.224-0.5-0.5v-4c0-0.276 0.224-0.5 0.5-0.5z"></path>
<path fill="none" stroke="#3e4b5d" style="stroke: var(--color2, #3e4b5d)" stroke-linejoin="miter" stroke-linecap="butt" stroke-miterlimit="4" stroke-width="1" d="M21 0.5c0.276 0 0.5 0.224 0.5 0.5v4c0 0.276-0.224 0.5-0.5 0.5s-0.5-0.224-0.5-0.5v-4c0-0.276 0.224-0.5 0.5-0.5z"></path>
</symbol>
<symbol id="icon-community" viewBox="0 0 32 32">
<path fill="#fff" style="fill: var(--color3, #fff); stroke: var(--color2, #3e4b5d)" stroke="#3e4b5d" stroke-linejoin="miter" stroke-linecap="butt" stroke-miterlimit="4" stroke-width="2.1333" d="M18.133 7.467c0 2.946-2.388 5.333-5.333 5.333s-5.333-2.388-5.333-5.333c0-2.946 2.388-5.333 5.333-5.333s5.333 2.388 5.333 5.333z"></path>
<path fill="#fff" style="fill: var(--color3, #fff); stroke: var(--color2, #3e4b5d)" stroke="#3e4b5d" stroke-linejoin="miter" stroke-linecap="butt" stroke-miterlimit="4" stroke-width="2.1333" d="M1.1 29.867c0.37-5.991 3.847-11.427 9.422-12.537 0.852-0.169 1.624-0.263 2.279-0.263s1.427 0.094 2.279 0.263c5.575 1.11 9.051 6.545 9.422 12.537h-23.401z"></path>
<path fill="#fff" style="fill: var(--color3, #fff); stroke: var(--color2, #3e4b5d)" stroke="#3e4b5d" stroke-linejoin="miter" stroke-linecap="butt" stroke-miterlimit="4" stroke-width="2.1333" d="M27.323 13.867c0 1.767-1.433 3.2-3.2 3.2s-3.2-1.433-3.2-3.2c0-1.767 1.433-3.2 3.2-3.2s3.2 1.433 3.2 3.2z"></path>
<path fill="#fff" style="fill: var(--color3, #fff); stroke: var(--color2, #3e4b5d)" stroke="#3e4b5d" stroke-linejoin="miter" stroke-linecap="butt" stroke-miterlimit="4" stroke-width="2.1333" d="M16 28.8c0-4.124 3.343-7.467 7.467-7.467s7.467 3.343 7.467 7.467v1.067h-14.933v-1.067z"></path>
</symbol>
<symbol id="icon-stripe" viewBox="0 0 32 32">
<path fill="none" stroke="#3e4b5d" style="stroke: var(--color2, #3e4b5d)" stroke-linejoin="miter" stroke-linecap="butt" stroke-miterlimit="4" stroke-width="2.1333" d="M5.333 1.067h21.333c1.767 0 3.2 1.433 3.2 3.2v23.467c0 1.767-1.433 3.2-3.2 3.2h-21.333c-1.767 0-3.2-1.433-3.2-3.2v-23.467c0-1.767 1.433-3.2 3.2-3.2z"></path>
<path fill="none" stroke="#3e4b5d" style="stroke: var(--color2, #3e4b5d)" stroke-linejoin="miter" stroke-linecap="butt" stroke-miterlimit="4" stroke-width="1.0667" d="M8.533 11.2h14.933c0.295 0 0.533 0.239 0.533 0.533s-0.239 0.533-0.533 0.533h-14.933c-0.295 0-0.533-0.239-0.533-0.533s0.239-0.533 0.533-0.533z"></path>
<path fill="none" stroke="#3e4b5d" style="stroke: var(--color2, #3e4b5d)" stroke-linejoin="miter" stroke-linecap="butt" stroke-miterlimit="4" stroke-width="1.0667" d="M8.533 19.733h14.933c0.295 0 0.533 0.239 0.533 0.533s-0.239 0.533-0.533 0.533h-14.933c-0.295 0-0.533-0.239-0.533-0.533s0.239-0.533 0.533-0.533z"></path>
</symbol>
<symbol id="icon-girl" viewBox="0 0 28 32">
<path fill="none" stroke="#3e4b5d" style="stroke: var(--color1, #3e4b5d)" stroke-linejoin="miter" stroke-linecap="butt" stroke-miterlimit="4" stroke-width="2" d="M1 14c0-7.18 5.82-13 13-13s13 5.82 13 13v13h-26v-13z"></path>
<path fill="#fff" style="fill: var(--color2, #fff); stroke: var(--color1, #3e4b5d)" stroke="#3e4b5d" stroke-linejoin="miter" stroke-linecap="butt" stroke-miterlimit="4" stroke-width="2" d="M5 22c0 4.971 4.029 9 9 9s9-4.029 9-9v-7h-18v7z"></path>
</symbol>
<symbol id="icon-boy" viewBox="0 0 32 32">
<path fill="none" stroke="#3e4b5d" style="stroke: var(--color1, #3e4b5d)" stroke-linejoin="miter" stroke-linecap="butt" stroke-miterlimit="4" stroke-width="2.2857" d="M30.857 16c0 8.205-6.652 14.857-14.857 14.857s-14.857-6.652-14.857-14.857c0-8.205 6.652-14.857 14.857-14.857s14.857 6.652 14.857 14.857z"></path>
<path fill="none" stroke="#3e4b5d" style="stroke: var(--color1, #3e4b5d)" stroke-linejoin="miter" stroke-linecap="butt" stroke-miterlimit="4" stroke-width="2.2857" d="M1.143 14.857c11.429 0 10.286-12.571 10.286-12.571"></path>
<path fill="none" stroke="#3e4b5d" style="stroke: var(--color1, #3e4b5d)" stroke-linejoin="miter" stroke-linecap="butt" stroke-miterlimit="4" stroke-width="2.2857" d="M30.857 14.857c-11.429 0-19.429-9.143-19.429-9.143"></path>
</symbol>
<symbol id="icon-star" viewBox="0 0 34 32">
<path fill="none" stroke="#3e4b5d" style="stroke: var(--color1, #3e4b5d)" stroke-linejoin="miter" stroke-linecap="butt" stroke-miterlimit="4" stroke-width="2.1333" d="M17.067 3.452l3.057 9.408h9.892l-8.003 5.814 0.239 0.737 2.817 8.671-8.003-5.814-8.003 5.814 3.057-9.408-8.003-5.814h9.892l3.057-9.408z"></path>
</symbol>
<symbol id="icon-photo" viewBox="0 0 30 25">
<path fill-rule="evenodd" clip-rule="evenodd" d="M2 4.00875H7.75862L9.5 0H20.5L22.7586 4.00875H28H30V6.00875V23V25H28H2H0V23V6.00875V4.00875H2ZM9.59302 4.8056L10.8118 2H19.3312L21.0162 4.99049L21.5899 6.00875H22.7586H28V23H2V6.00875H7.75862H9.07038L9.59302 4.8056ZM18.5 14C18.5 15.6569 17.1569 17 15.5 17C13.8431 17 12.5 15.6569 12.5 14C12.5 12.3431 13.8431 11 15.5 11C17.1569 11 18.5 12.3431 18.5 14ZM20.5 14C20.5 16.7614 18.2614 19 15.5 19C12.7386 19 10.5 16.7614 10.5 14C10.5 11.2386 12.7386 9 15.5 9C18.2614 9 20.5 11.2386 20.5 14Z" fill="#3E4B5D"/>
</symbol>
<symbol id="icon-border-close" viewBox="0 0 32 32">
<path fill="none" stroke="#c6ced6" style="stroke: var(--color1, #c6ced6)" stroke-linejoin="miter" stroke-linecap="butt" stroke-miterlimit="4" stroke-width="2.6667" d="M30.667 16c0 8.1-6.567 14.667-14.667 14.667s-14.667-6.566-14.667-14.667c0-8.1 6.566-14.667 14.667-14.667s14.667 6.566 14.667 14.667z"></path>
<path fill="#c6ced6" style="fill: var(--color1, #c6ced6)" d="M22.559 10.302c-0.52-0.52-1.362-0.52-1.882 0l-4.6 4.603-4.42-4.42c-0.521-0.521-1.365-0.521-1.886 0s-0.521 1.365 0 1.886l4.421 4.421-3.887 3.889c-0.519 0.52-0.519 1.362 0 1.881s1.362 0.52 1.882-0l3.886-3.889 4.068 4.068c0.521 0.521 1.365 0.521 1.886 0s0.521-1.365 0-1.886l-4.069-4.069 4.601-4.603c0.519-0.52 0.519-1.362-0-1.881z"></path>
</symbol>
<symbol id="icon-border-down" viewBox="0 0 32 32">
<path fill="none" stroke="#c6ced6" style="stroke: var(--color1, #c6ced6)" stroke-linejoin="miter" stroke-linecap="butt" stroke-miterlimit="4" stroke-width="2.6667" d="M30.667 16c0 8.1-6.567 14.667-14.667 14.667s-14.667-6.566-14.667-14.667c0-8.1 6.566-14.667 14.667-14.667s14.667 6.566 14.667 14.667z"></path>
<path fill="none" stroke="#c6ced6" style="stroke: var(--color1, #c6ced6)" stroke-linejoin="miter" stroke-linecap="round" stroke-miterlimit="4" stroke-width="2.6667" d="M12 16l4 3.333 4-3.333"></path>
</symbol>
<symbol id="icon-diplom" viewBox="0 0 29 39">
<path fill-rule="evenodd" clip-rule="evenodd" d="M0 3.3125C0 1.7592 1.34315 0.5 3 0.5H25.5C27.1569 0.5 28.5 1.7592 28.5 3.3125V30.1875C28.5 31.7408 27.1569 33 25.5 33H16.5V31.875H25.5C26.4941 31.875 27.3 31.1195 27.3 30.1875V3.3125C27.3 2.38052 26.4941 1.625 25.5 1.625H3C2.00589 1.625 1.2 2.38052 1.2 3.3125V30.1875C1.2 31.1195 2.00589 31.875 3 31.875H4.2V33H3C1.34315 33 0 31.7408 0 30.1875V3.3125Z" fill="#3E4B5D"/>
<path d="M13.5 30.0337V38L10.3 35.6L10 35.375L9.7 35.6L6.5 38V30.0337C6.5795 30.084 6.66446 30.1349 6.75487 30.1858C7.48521 30.5966 8.56884 31 10 31C11.4312 31 12.5148 30.5966 13.2451 30.1858C13.3355 30.1349 13.4205 30.084 13.5 30.0337Z" stroke="#3E4B5D"/>
<circle cx="10" cy="24" r="4.5" stroke="#3E4B5D"/>
<path d="M10 21.618L10.4225 22.9184L10.5348 23.2639H10.8981H12.2654L11.1592 24.0676L10.8653 24.2812L10.9776 24.6266L11.4001 25.9271L10.2939 25.1234L10 24.9098L9.70611 25.1234L8.59992 25.9271L9.02244 24.6266L9.1347 24.2812L8.84081 24.0676L7.73462 23.2639H9.10194H9.46522L9.57747 22.9184L10 21.618Z" stroke="#3E4B5D"/>
<rect x="6" y="6" width="17" height="1" rx="0.5" fill="#3E4B5D"/>
<rect x="6" y="10" width="17" height="1" rx="0.5" fill="#3E4B5D"/>
<rect x="6" y="14" width="9" height="1" rx="0.5" fill="#3E4B5D"/>
</symbol>
<symbol id="icon-close-circle" viewBox="0 0 14 14">
	<circle cx="7" cy="7" r="7" fill="#D9DEE2"/>
	<path fill-rule="evenodd" clip-rule="evenodd" d="M4.17218 4.17157C3.78165 4.5621 3.78165 5.19526 4.17218 5.58579L5.58639 7L4.17218 8.41421C3.78165 8.80474 3.78165 9.4379 4.17218 9.82843C4.5627 10.219 5.19587 10.219 5.58639 9.82843L7.0006 8.41421L8.41482 9.82843C8.80534 10.219 9.43851 10.219 9.82903 9.82843C10.2196 9.4379 10.2196 8.80474 9.82903 8.41421L8.41482 7L9.82903 5.58579C10.2196 5.19526 10.2196 4.5621 9.82903 4.17157C9.43851 3.78105 8.80534 3.78105 8.41482 4.17157L7.0006 5.58579L5.58639 4.17157C5.19587 3.78105 4.5627 3.78105 4.17218 4.17157Z" fill="#3E4B5D"/>
	<path fill-rule="evenodd" clip-rule="evenodd" d="M4.17218 4.17157C3.78165 4.5621 3.78165 5.19526 4.17218 5.58579L5.58639 7L4.17218 8.41421C3.78165 8.80474 3.78165 9.4379 4.17218 9.82843C4.5627 10.219 5.19587 10.219 5.58639 9.82843L7.0006 8.41421L8.41482 9.82843C8.80534 10.219 9.43851 10.219 9.82903 9.82843C10.2196 9.4379 10.2196 8.80474 9.82903 8.41421L8.41482 7L9.82903 5.58579C10.2196 5.19526 10.2196 4.5621 9.82903 4.17157C9.43851 3.78105 8.80534 3.78105 8.41482 4.17157L7.0006 5.58579L5.58639 4.17157C5.19587 3.78105 4.5627 3.78105 4.17218 4.17157Z" fill="#3E4B5D"/>
	<path fill-rule="evenodd" clip-rule="evenodd" d="M4.17218 4.17157C3.78165 4.5621 3.78165 5.19526 4.17218 5.58579L5.58639 7L4.17218 8.41421C3.78165 8.80474 3.78165 9.4379 4.17218 9.82843C4.5627 10.219 5.19587 10.219 5.58639 9.82843L7.0006 8.41421L8.41482 9.82843C8.80534 10.219 9.43851 10.219 9.82903 9.82843C10.2196 9.4379 10.2196 8.80474 9.82903 8.41421L8.41482 7L9.82903 5.58579C10.2196 5.19526 10.2196 4.5621 9.82903 4.17157C9.43851 3.78105 8.80534 3.78105 8.41482 4.17157L7.0006 5.58579L5.58639 4.17157C5.19587 3.78105 4.5627 3.78105 4.17218 4.17157Z" fill="#3E4B5D"/>
	<path fill-rule="evenodd" clip-rule="evenodd" d="M4.17218 4.17157C3.78165 4.5621 3.78165 5.19526 4.17218 5.58579L5.58639 7L4.17218 8.41421C3.78165 8.80474 3.78165 9.4379 4.17218 9.82843C4.5627 10.219 5.19587 10.219 5.58639 9.82843L7.0006 8.41421L8.41482 9.82843C8.80534 10.219 9.43851 10.219 9.82903 9.82843C10.2196 9.4379 10.2196 8.80474 9.82903 8.41421L8.41482 7L9.82903 5.58579C10.2196 5.19526 10.2196 4.5621 9.82903 4.17157C9.43851 3.78105 8.80534 3.78105 8.41482 4.17157L7.0006 5.58579L5.58639 4.17157C5.19587 3.78105 4.5627 3.78105 4.17218 4.17157Z" fill="#3E4B5D"/>
	<path fill-rule="evenodd" clip-rule="evenodd" d="M4.17218 4.17157C3.78165 4.5621 3.78165 5.19526 4.17218 5.58579L5.58639 7L4.17218 8.41421C3.78165 8.80474 3.78165 9.4379 4.17218 9.82843C4.5627 10.219 5.19587 10.219 5.58639 9.82843L7.0006 8.41421L8.41482 9.82843C8.80534 10.219 9.43851 10.219 9.82903 9.82843C10.2196 9.4379 10.2196 8.80474 9.82903 8.41421L8.41482 7L9.82903 5.58579C10.2196 5.19526 10.2196 4.5621 9.82903 4.17157C9.43851 3.78105 8.80534 3.78105 8.41482 4.17157L7.0006 5.58579L5.58639 4.17157C5.19587 3.78105 4.5627 3.78105 4.17218 4.17157Z" fill="#3E4B5D"/>
</symbol>
<symbol id="icon-close-circle-white" viewBox="0 0 14 14">
	<circle cx="7" cy="7" r="7" fill="#fff"/>
	<path fill-rule="evenodd" clip-rule="evenodd" d="M4.17218 4.17157C3.78165 4.5621 3.78165 5.19526 4.17218 5.58579L5.58639 7L4.17218 8.41421C3.78165 8.80474 3.78165 9.4379 4.17218 9.82843C4.5627 10.219 5.19587 10.219 5.58639 9.82843L7.0006 8.41421L8.41482 9.82843C8.80534 10.219 9.43851 10.219 9.82903 9.82843C10.2196 9.4379 10.2196 8.80474 9.82903 8.41421L8.41482 7L9.82903 5.58579C10.2196 5.19526 10.2196 4.5621 9.82903 4.17157C9.43851 3.78105 8.80534 3.78105 8.41482 4.17157L7.0006 5.58579L5.58639 4.17157C5.19587 3.78105 4.5627 3.78105 4.17218 4.17157Z" fill="#3E4B5D"/>
	<path fill-rule="evenodd" clip-rule="evenodd" d="M4.17218 4.17157C3.78165 4.5621 3.78165 5.19526 4.17218 5.58579L5.58639 7L4.17218 8.41421C3.78165 8.80474 3.78165 9.4379 4.17218 9.82843C4.5627 10.219 5.19587 10.219 5.58639 9.82843L7.0006 8.41421L8.41482 9.82843C8.80534 10.219 9.43851 10.219 9.82903 9.82843C10.2196 9.4379 10.2196 8.80474 9.82903 8.41421L8.41482 7L9.82903 5.58579C10.2196 5.19526 10.2196 4.5621 9.82903 4.17157C9.43851 3.78105 8.80534 3.78105 8.41482 4.17157L7.0006 5.58579L5.58639 4.17157C5.19587 3.78105 4.5627 3.78105 4.17218 4.17157Z" fill="#3E4B5D"/>
	<path fill-rule="evenodd" clip-rule="evenodd" d="M4.17218 4.17157C3.78165 4.5621 3.78165 5.19526 4.17218 5.58579L5.58639 7L4.17218 8.41421C3.78165 8.80474 3.78165 9.4379 4.17218 9.82843C4.5627 10.219 5.19587 10.219 5.58639 9.82843L7.0006 8.41421L8.41482 9.82843C8.80534 10.219 9.43851 10.219 9.82903 9.82843C10.2196 9.4379 10.2196 8.80474 9.82903 8.41421L8.41482 7L9.82903 5.58579C10.2196 5.19526 10.2196 4.5621 9.82903 4.17157C9.43851 3.78105 8.80534 3.78105 8.41482 4.17157L7.0006 5.58579L5.58639 4.17157C5.19587 3.78105 4.5627 3.78105 4.17218 4.17157Z" fill="#3E4B5D"/>
	<path fill-rule="evenodd" clip-rule="evenodd" d="M4.17218 4.17157C3.78165 4.5621 3.78165 5.19526 4.17218 5.58579L5.58639 7L4.17218 8.41421C3.78165 8.80474 3.78165 9.4379 4.17218 9.82843C4.5627 10.219 5.19587 10.219 5.58639 9.82843L7.0006 8.41421L8.41482 9.82843C8.80534 10.219 9.43851 10.219 9.82903 9.82843C10.2196 9.4379 10.2196 8.80474 9.82903 8.41421L8.41482 7L9.82903 5.58579C10.2196 5.19526 10.2196 4.5621 9.82903 4.17157C9.43851 3.78105 8.80534 3.78105 8.41482 4.17157L7.0006 5.58579L5.58639 4.17157C5.19587 3.78105 4.5627 3.78105 4.17218 4.17157Z" fill="#3E4B5D"/>
	<path fill-rule="evenodd" clip-rule="evenodd" d="M4.17218 4.17157C3.78165 4.5621 3.78165 5.19526 4.17218 5.58579L5.58639 7L4.17218 8.41421C3.78165 8.80474 3.78165 9.4379 4.17218 9.82843C4.5627 10.219 5.19587 10.219 5.58639 9.82843L7.0006 8.41421L8.41482 9.82843C8.80534 10.219 9.43851 10.219 9.82903 9.82843C10.2196 9.4379 10.2196 8.80474 9.82903 8.41421L8.41482 7L9.82903 5.58579C10.2196 5.19526 10.2196 4.5621 9.82903 4.17157C9.43851 3.78105 8.80534 3.78105 8.41482 4.17157L7.0006 5.58579L5.58639 4.17157C5.19587 3.78105 4.5627 3.78105 4.17218 4.17157Z" fill="#3E4B5D"/>
</symbol>
<symbol id="icon-home" viewBox="0 0 14 16">
	<path d="M0.5 7.82843C0.5 7.4306 0.658035 7.04907 0.93934 6.76777L5.93934 1.76777C6.52513 1.18198 7.47487 1.18198 8.06066 1.76777L13.0607 6.76777C13.342 7.04907 13.5 7.4306 13.5 7.82843V14C13.5 14.8284 12.8284 15.5 12 15.5H10C9.72927 15.5 9.47219 15.2728 9.44124 14.9545C9.37534 14.2769 9.2316 13.3417 8.90668 12.562C8.5921 11.8071 8.01587 11 7 11C5.98413 11 5.4079 11.8071 5.09332 12.562C4.7684 13.3417 4.62466 14.2769 4.55876 14.9545C4.52781 15.2728 4.27073 15.5 4 15.5H2C1.17157 15.5 0.5 14.8284 0.5 14V7.82843Z" stroke="#3E4B5D"/>
</symbol>
<symbol id="icon-use" viewBox="0 0 14 12">
	<rect y="2" width="8" height="1" fill="#3E4B5D"/>
<rect x="11" y="2" width="3" height="1" fill="#3E4B5D"/>
<rect y="9" width="3" height="1" fill="#3E4B5D"/>
<rect x="6" y="9" width="8" height="1" fill="#3E4B5D"/>
<path fill-rule="evenodd" clip-rule="evenodd" d="M9.5 4C10.3284 4 11 3.32843 11 2.5C11 1.67157 10.3284 1 9.5 1C8.67157 1 8 1.67157 8 2.5C8 3.32843 8.67157 4 9.5 4ZM9.5 5C10.8807 5 12 3.88071 12 2.5C12 1.11929 10.8807 0 9.5 0C8.11929 0 7 1.11929 7 2.5C7 3.88071 8.11929 5 9.5 5Z" fill="#3E4B5D"/>
<path fill-rule="evenodd" clip-rule="evenodd" d="M4.5 11C5.32843 11 6 10.3284 6 9.5C6 8.67157 5.32843 8 4.5 8C3.67157 8 3 8.67157 3 9.5C3 10.3284 3.67157 11 4.5 11ZM4.5 12C5.88071 12 7 10.8807 7 9.5C7 8.11929 5.88071 7 4.5 7C3.11929 7 2 8.11929 2 9.5C2 10.8807 3.11929 12 4.5 12Z" fill="#3E4B5D"/>
</symbol>
<symbol id="icon-locate" viewBox="0 0 16 18">
	<path fill-rule="evenodd" clip-rule="evenodd" d="M7.99998 17C7.99998 17 15 12.1111 15 7.92647C14.9824 3.5647 11.866 1 7.99998 1C4.134 1 1.01436 3.52585 1 7.92647C0.985639 12.3271 7.99998 17 7.99998 17Z" stroke="#15171A"/>
	<path fill-rule="evenodd" clip-rule="evenodd" d="M8 10C9.10457 10 10 9.10457 10 8C10 6.89543 9.10457 6 8 6C6.89543 6 6 6.89543 6 8C6 9.10457 6.89543 10 8 10Z" stroke="#15171A"/>
</symbol>
<symbol id="icon-star-big" viewBox="0 0 33 33">
<circle cx="16.5" cy="16.5" r="16.5" fill="#9B51E0"/>
<path d="M16.5 7L18.6329 13.5643H25.535L19.9511 17.6213L22.084 24.1857L16.5 20.1287L10.916 24.1857L13.0489 17.6213L7.46496 13.5643H14.3671L16.5 7Z" fill="white"/>
</symbol>
<symbol id="icon-lock" viewBox="0 0 14 16">
<rect x="0.5" y="6.5" width="13" height="9" rx="1.5" fill="currentColor" stroke="#3E4B5D"/>
<path d="M7 0.5C7.83099 0.5 8.44927 0.854938 8.93287 1.41915C9.42919 1.99818 9.7788 2.79581 10.0192 3.63736C10.258 4.47311 10.379 5.31559 10.4398 5.95365C10.4595 6.16106 10.4728 6.34568 10.4817 6.5H3.51828C3.52721 6.34568 3.54049 6.16106 3.56025 5.95365C3.62102 5.31559 3.74198 4.47311 3.98076 3.63736C4.2212 2.79581 4.57081 1.99818 5.06713 1.41915C5.55074 0.854938 6.16901 0.5 7 0.5Z" fill="currentColor" stroke="#3E4B5D"/>
<circle cx="7" cy="11" r="1.5" fill="currentColor" stroke="#3E4B5D"/>
</symbol>
<symbol id="icon-smile-bad" viewBox="0 0 14 16">
<circle cx="7.5" cy="7.5" r="7" stroke="#15171A"/>
<path d="M5 11C5 11 6.25 10 7.5 10C8.75 10 10 11 10 11" stroke="#15171A" stroke-linecap="round"/>
<circle cx="10" cy="6" r="1" fill="#15171A"/>
<circle cx="5" cy="6" r="1" fill="#15171A"/>
</symbol>
<symbol id="icon-check" viewBox="0 0 14 15">
<rect x="0.5" y="0.5" width="13" height="14" rx="1.5" stroke="#3E4B5D"/>
<path d="M4 7.85714L6.33333 10L10 5" stroke="#3E4B5D" stroke-linecap="round"/>
</symbol>
<symbol id="icon-remove" viewBox="0 0 20 20">
<path fill-rule="evenodd" clip-rule="evenodd" d="M14.4135 5.39398C14.1212 5.10165 13.6472 5.1017 13.3549 5.39411L9.72829 9.02247L6.23676 5.53093C5.94386 5.23804 5.46899 5.23804 5.1761 5.53093C4.8832 5.82383 4.8832 6.2987 5.1761 6.59159L8.66789 10.0834L5.22294 13.53C4.93077 13.8223 4.93083 14.2961 5.22307 14.5883C5.5154 14.8806 5.98939 14.8806 6.28166 14.5882L9.72635 11.1419L13.3078 14.7233C13.6007 15.0162 14.0756 15.0162 14.3685 14.7233C14.6614 14.4304 14.6614 13.9556 14.3685 13.6627L10.7868 10.0809L14.4136 6.45232C14.7058 6.16002 14.7058 5.68622 14.4135 5.39398Z" fill="#3E4B5D"/>
</symbol>
<symbol id="icon-chat" viewBox="0 0 25 23">
<path d="M1 3C1 1.89543 1.89543 1 3 1H22C23.1046 1 24 1.89543 24 3V16C24 17.1046 23.1046 18 22 18H15H8.16555C7.58105 18 7.00366 18.1281 6.47401 18.3753L2.42289 20.2658C1.7599 20.5752 1 20.0912 1 19.3596V19V3Z" stroke="#C6CED6" stroke-width="2"/>
<rect x="6" y="6" width="14" height="2" rx="1" fill="#C6CED6"/>
<rect x="6" y="11" width="14" height="2" rx="1" fill="#C6CED6"/>
</symbol>
<symbol id="icon-photo-big" viewBox="0 0 30 25">
<path fill-rule="evenodd" clip-rule="evenodd" d="M7.75862 4.00875H2H0V6.00875V23V25H2H28H30V23V6.00875V4.00875H28H22.7586L20.5 0H9.5L7.75862 4.00875ZM10.8118 2L9.59302 4.8056L9.07038 6.00875H7.75862H2V23H28V6.00875H22.7586H21.5899L21.0162 4.99049L19.3312 2H10.8118ZM15 19C17.7614 19 20 16.7614 20 14C20 11.2386 17.7614 9 15 9C12.2386 9 10 11.2386 10 14C10 16.7614 12.2386 19 15 19ZM15 21C18.866 21 22 17.866 22 14C22 10.134 18.866 7 15 7C11.134 7 8 10.134 8 14C8 17.866 11.134 21 15 21ZM14 12C14 11.4477 14.4477 11 15 11C15.5523 11 16 11.4477 16 12V13H17C17.5523 13 18 13.4477 18 14C18 14.5523 17.5523 15 17 15H16V16C16 16.5523 15.5523 17 15 17C14.4477 17 14 16.5523 14 16V15H13C12.4477 15 12 14.5523 12 14C12 13.4477 12.4477 13 13 13H14V12Z" fill="#3E4B5D"/>
</symbol>
<symbol id="icon-insti" viewBox="0 0 13 15">
<path d="M0.5 2C0.5 1.17157 1.17157 0.5 2 0.5H5C5.82843 0.5 6.5 1.17157 6.5 2V14.5H2C1.17157 14.5 0.5 13.8284 0.5 13V2Z" stroke="#3E4B5D"/>
<path d="M6.5 4.5H11C11.8284 4.5 12.5 5.17157 12.5 6V13C12.5 13.8284 11.8284 14.5 11 14.5H6.5V4.5Z" stroke="#3E4B5D"/>
<rect x="2.5" y="2.5" width="2" height="2" rx="0.5" stroke="#3E4B5D"/>
<rect x="2.5" y="6.5" width="2" height="2" rx="0.5" stroke="#3E4B5D"/>
<rect x="8.5" y="10.5" width="2" height="2" rx="0.5" stroke="#3E4B5D"/>
<rect x="8.5" y="6.5" width="2" height="2" rx="0.5" stroke="#3E4B5D"/>
<rect x="2.5" y="10.5" width="2" height="2" rx="0.5" stroke="#3E4B5D"/>
</symbol>
<symbol id="icon-arrow" viewBox="0 0 12 8">
<path d="M4 1L2 4L4 7" stroke="#B0BAC4" stroke-width="2" stroke-linecap="round"/>
<rect x="3" y="3" width="9" height="2" rx="1" fill="#B0BAC4"/>
</symbol>
<symbol id="icon-monitoring" viewBox="0 0 14 14">
	<path d="M3 10.5L4.5 8.5L6 9.5L7.5 3.5L8.5 9L10.5 6.5L11.5 7.5" stroke="#3E4B5D" stroke-linecap="round" stroke-linejoin="round"/>
	<rect x="0.5" y="0.5" width="13" height="13" rx="1.5" stroke="#3E4B5D"/>
</symbol>
<symbol id="icon-table" viewBox="0 0 28 39">
	<path fill-rule="evenodd" clip-rule="evenodd" d="M0 2.8125C0 1.2592 1.31958 0 2.94737 0H25.0526C26.6804 0 28 1.2592 28 2.8125V29.6875C28 31.2408 26.6804 32.5 25.0526 32.5H13.9509V31.375H25.0526C26.0293 31.375 26.8211 30.6195 26.8211 29.6875V2.8125C26.8211 1.88052 26.0293 1.125 25.0526 1.125H2.94737C1.9707 1.125 1.17895 1.88052 1.17895 2.8125V29.6875C1.17895 30.6195 1.9707 31.375 2.94737 31.375H13.9509V32.5H2.94737C1.31958 32.5 0 31.2408 0 29.6875V2.8125Z" fill="#3E4B5D"/>
	<rect x="5.89453" y="5" width="16.7018" height="1" rx="0.5" fill="#3E4B5D"/>
	<rect x="5.89453" y="9" width="16.7018" height="1" rx="0.5" fill="#3E4B5D"/>
	<rect x="5.89453" y="13" width="16.7018" height="1" rx="0.5" fill="#3E4B5D"/>
	<rect x="5.89453" y="22" width="16.7018" height="1" rx="0.5" fill="#3E4B5D"/>
	<rect x="10.8071" y="18" width="0.982456" height="9" rx="0.491228" fill="#3E4B5D"/>
	<rect x="16.7017" y="18" width="0.982456" height="9" rx="0.491228" fill="#3E4B5D"/>
	<rect x="6.39453" y="18.5" width="15.7018" height="8" rx="1.5" stroke="#3E4B5D" stroke-width="1" fill="transparent"/>
</symbol>
<symbol id="icon-tal" viewBox="0 0 16 11">
	<path fill-rule="evenodd" clip-rule="evenodd" d="M0 0H16V1H0V0ZM0 5H8V6H0V5ZM12 10H0V11H12V10Z" fill="currentColor"/>
</symbol>
<symbol id="icon-tac" viewBox="0 0 16 11">
	<path fill-rule="evenodd" clip-rule="evenodd" d="M0 0H16V1H0V0ZM4 5H12V6H4V5ZM14 10H2V11H14V10Z" fill="currentColor"/>
</symbol>
<symbol id="icon-tar" viewBox="0 0 16 11">
	<path fill-rule="evenodd" clip-rule="evenodd" d="M0 0H16V1H0V0ZM8 5H16V6H8V5ZM16 10H4V11H16V10Z" fill="currentColor"/>
</symbol>
<symbol id="icon-block-lines" viewBox="0 0 16 11">
	<path fill-rule="evenodd" clip-rule="evenodd" d="M0 0H16V1H0V0ZM0 5H16V6H0V5ZM16 10H0V11H16V10Z" fill="currentColor"/>
</symbol>
<symbol id="icon-exit" viewBox="0 0 11 13">
	<path fill-rule="evenodd" clip-rule="evenodd" d="M1 2.5C1 1.67157 1.67157 1 2.5 1H8.5C9.32843 1 10 1.67157 10 2.5V3C10 3.27614 10.2239 3.5 10.5 3.5C10.7761 3.5 11 3.27614 11 3V2.5C11 1.11929 9.88071 0 8.5 0H2.5C1.11929 0 0 1.11929 0 2.5V10.5C0 11.8807 1.11929 13 2.5 13H8.5C9.88071 13 11 11.8807 11 10.5V9.5C11 9.22386 10.7761 9 10.5 9C10.2239 9 10 9.22386 10 9.5V10.5C10 11.3284 9.32843 12 8.5 12H2.5C1.67157 12 1 11.3284 1 10.5V2.5ZM10.8536 6.16392L7.67157 4.13921C7.47631 3.9536 7.15973 3.9536 6.96447 4.13921C6.7692 4.32482 6.7692 4.62576 6.96447 4.81137L9.29289 6.02471H4.39645H3.5C3.22386 6.02471 3 6.23751 3 6.5C3 6.76249 3.22386 6.97529 3.5 6.97529H9.29289L6.96447 8.18863C6.7692 8.37424 6.7692 8.67518 6.96447 8.86079C7.15973 9.0464 7.47631 9.0464 7.67157 8.86079L10.8536 6.83608C11.0488 6.65047 11.0488 6.34953 10.8536 6.16392Z" fill="#3E4B5D"/>
</symbol>
<symbol id="icon-parents" viewBox="0 0 16 16">
	<path fill-rule="evenodd" clip-rule="evenodd" d="M8 13C8 14.3886 7.62632 14.9161 6.93379 14.9193C6.61112 14.87 6.29571 14.7987 5.98912 14.7069C5.83423 14.6483 5.67111 14.5788 5.5 14.5C5.2804 14.3902 5.08491 14.3096 4.91354 14.2389L4.91352 14.2388C4.30451 13.9876 4 13.862 4 13V11C4 9.89543 4.89543 9 6 9C7.10457 9 8 9.89543 8 11V11.5V13ZM13 12.899C14.2372 11.6364 15 9.9073 15 8C15 4.13401 11.866 1 8 1C4.13401 1 1 4.13401 1 8C1 9.9073 1.76281 11.6364 3 12.899V11C3 9.34315 4.34315 8 6 8C7.20714 8 8.24776 8.71297 8.72373 9.74078C9.1768 9.28335 9.80531 9 10.5 9C11.8807 9 13 10.1193 13 11.5V12.899ZM9 11.5V13V13.5C9 14.5 9.43314 15.0334 10.5 14.5C10.7671 14.3665 10.9944 14.289 11.1852 14.235C11.461 14.0938 11.7261 13.935 11.9791 13.7598C11.9932 13.6892 12 13.604 12 13.5V11.5C12 10.6716 11.3284 10 10.5 10C9.67157 10 9 10.6716 9 11.5ZM8 16C12.4183 16 16 12.4183 16 8C16 3.58172 12.4183 0 8 0C3.58172 0 0 3.58172 0 8C0 12.4183 3.58172 16 8 16ZM10.5 7C10.7761 7 11 6.77614 11 6.5C11 6.22386 10.7761 6 10.5 6C10.2239 6 10 6.22386 10 6.5C10 6.77614 10.2239 7 10.5 7ZM10.5 8C11.3284 8 12 7.32843 12 6.5C12 5.67157 11.3284 5 10.5 5C9.67157 5 9 5.67157 9 6.5C9 7.32843 9.67157 8 10.5 8ZM7 5C7 5.55228 6.55228 6 6 6C5.44772 6 5 5.55228 5 5C5 4.44772 5.44772 4 6 4C6.55228 4 7 4.44772 7 5ZM8 5C8 6.10457 7.10457 7 6 7C4.89543 7 4 6.10457 4 5C4 3.89543 4.89543 3 6 3C7.10457 3 8 3.89543 8 5Z" fill="#3E4B5D"/>
</symbol>
<symbol id="icon-childrens" viewBox="0 0 16 16">
	<path fill-rule="evenodd" clip-rule="evenodd" d="M15 8C15 11.866 11.866 15 8 15C4.13401 15 1 11.866 1 8C1 7.75928 1.01215 7.5214 1.03587 7.28693L1.06202 7.49614C3.77924 7.15648 5.1561 5.50617 5.83274 3.96682C5.93234 3.74023 6.01698 3.5159 6.08893 3.29824C6.15323 3.35832 6.22399 3.42293 6.30108 3.49129C6.7335 3.87476 7.36763 4.37867 8.18026 4.86625C9.7665 5.818 12.0497 6.71683 14.8421 6.51455C14.9455 6.99331 15 7.49029 15 8ZM6.4162 1.92479C6.40427 2.00319 6.39062 2.08561 6.37497 2.17154L6.37607 2.17049L6.37666 2.17116L6.38205 2.17719C6.38731 2.18304 6.3959 2.19252 6.40776 2.20535C6.4315 2.23102 6.46833 2.27011 6.51789 2.32058C6.61705 2.42156 6.76693 2.56784 6.96456 2.7431C7.36026 3.094 7.94489 3.55884 8.69476 4.00876C10.1174 4.86237 12.1191 5.6535 14.552 5.53055C13.5536 2.8831 10.9967 1 8 1C7.48338 1 6.97982 1.05597 6.49508 1.16217C6.49359 1.19259 6.49167 1.22698 6.48916 1.26505C6.47859 1.42545 6.45767 1.65211 6.4162 1.92479ZM5.46715 1.47229C3.31491 2.30798 1.67851 4.17739 1.16749 6.471C3.29672 6.12651 4.36346 4.82435 4.91727 3.56442C5.20729 2.90463 5.35397 2.25831 5.42757 1.77443C5.44434 1.66412 5.45724 1.56279 5.46715 1.47229ZM16 8C16 12.4183 12.4183 16 8 16C3.58172 16 0 12.4183 0 8C0 3.58172 3.58172 0 8 0C12.4183 0 16 3.58172 16 8ZM5 9C5.55228 9 6 8.55228 6 8C6 7.44772 5.55228 7 5 7C4.44772 7 4 7.44772 4 8C4 8.55228 4.44772 9 5 9ZM4.7227 11.084C4.95184 10.9312 5.2612 10.9925 5.41482 11.2208L5.41925 11.2271C5.42403 11.2338 5.43249 11.2455 5.44464 11.2614C5.46898 11.2934 5.50788 11.3421 5.56126 11.4022C5.66836 11.5227 5.8316 11.6861 6.05005 11.85C6.48547 12.1766 7.1328 12.5 8.00005 12.5C8.8673 12.5 9.51464 12.1766 9.95005 11.85C10.1685 11.6861 10.3317 11.5227 10.4388 11.4022C10.4922 11.3421 10.5311 11.2934 10.5555 11.2614C10.5676 11.2455 10.5761 11.2338 10.5809 11.2271L10.5848 11.2214L10.5849 11.2214C10.7383 10.9927 11.048 10.9311 11.2774 11.084C11.5072 11.2371 11.5687 11.5484 11.4155 11.7782C11.4157 11.778 11.4161 11.7773 11.0001 11.5L11.4155 11.7782L11.4149 11.7791L11.4133 11.7815L11.409 11.7877L11.3958 11.8066C11.385 11.8219 11.37 11.8424 11.3509 11.8675C11.3127 11.9176 11.2579 11.986 11.1863 12.0665C11.0434 12.2273 10.8316 12.4388 10.5501 12.65C9.98547 13.0734 9.1328 13.5 8.00005 13.5C6.8673 13.5 6.01464 13.0734 5.45005 12.65C5.16851 12.4388 4.95674 12.2273 4.81385 12.0665C4.74223 11.986 4.68738 11.9176 4.64921 11.8675C4.63011 11.8424 4.61514 11.8219 4.60429 11.8066L4.59109 11.7877L4.58679 11.7815L4.58522 11.7791L4.58403 11.7773L5.00005 11.5C4.58403 11.7773 4.5839 11.7771 4.58403 11.7773C4.43085 11.5476 4.49294 11.2371 4.7227 11.084ZM12 8C12 8.55228 11.5523 9 11 9C10.4477 9 10 8.55228 10 8C10 7.44772 10.4477 7 11 7C11.5523 7 12 7.44772 12 8Z" fill="#3E4B5D"/>
</symbol>
<symbol id="icon-diploms" viewBox="0 0 16 16">
	<circle cx="8" cy="8" r="7.5" stroke="#3E4B5D"/>
	<path d="M8 3.61803L8.87156 6.30041L8.98381 6.6459H9.34708H12.1675L9.88573 8.3037L9.59184 8.51722L9.7041 8.86271L10.5757 11.5451L8.29389 9.88729L8 9.67376L7.70611 9.88729L5.42435 11.5451L6.2959 8.86271L6.40816 8.51722L6.11426 8.3037L3.8325 6.6459H6.65292H7.01619L7.12844 6.30041L8 3.61803Z" stroke="#3E4B5D"/>
</symbol>
<symbol id="icon-message" viewBox="0 0 14 15">
	<path d="M13.5 6C13.5 8.27796 12.14 10.0303 10.0804 10.9023C9.78054 11.0293 9.71441 11.3142 9.69974 11.4459C9.684 11.5872 9.7022 11.7356 9.72078 11.8511C9.74062 11.9744 9.77012 12.1113 9.79799 12.2406L9.79954 12.2478C9.82793 12.3796 9.85604 12.5099 9.87956 12.6415C9.92906 12.9184 9.9474 13.147 9.91895 13.3166C9.90341 13.4092 9.87853 13.4648 9.84533 13.5019C9.80422 13.4816 9.74774 13.4487 9.67459 13.3981C9.4559 13.2468 9.19228 13.0118 8.89383 12.7391C8.86405 12.7119 8.83393 12.6843 8.80354 12.6565C8.54252 12.4176 8.26148 12.1603 8.00162 11.9583C7.85558 11.8448 7.70163 11.7371 7.54824 11.6559C7.40293 11.579 7.2109 11.5 7 11.5C3.31733 11.5 0.5 9.25434 0.5 6C0.5 2.74566 3.31733 0.5 7 0.5C10.6827 0.5 13.5 2.74566 13.5 6ZM9.9097 13.5275C9.90974 13.5275 9.90876 13.5273 9.90668 13.5268C9.90863 13.5271 9.90966 13.5274 9.9097 13.5275Z" stroke="#3E4B5D"/>
</symbol>
<symbol id="icon-answer" viewBox="0 0 28 28">
	<circle cx="14" cy="14" r="14" fill="#2F80ED"/>
	<path d="M17 12L14 10L11 12" stroke="white" stroke-width="2" stroke-linecap="round"/>
	<rect x="14.5" y="11.5" width="8" height="1" rx="0.5" transform="rotate(90 14.5 11.5)" fill="white" stroke="white"/>
</symbol>
</defs>
</svg>
