<svg width="79" height="18" viewBox="0 0 79 18" fill="none" xmlns="http://www.w3.org/2000/svg">
<path d="M3.60794 16.9998V11.0478H11.4799C11.9759 11.0478 12.4479 10.9758 12.8959 10.8318C13.3439 10.6878 13.7279 10.4878 14.0479 10.2318C14.3839 9.95981 14.6479 9.63181 14.8399 9.24781C15.0319 8.86381 15.1759 8.46381 15.2719 8.04781C15.3679 7.61581 15.4319 7.19181 15.4639 6.77581C15.4959 6.34381 15.5119 5.95981 15.5119 5.62381C15.5119 5.27181 15.4959 4.89581 15.4639 4.49581C15.4479 4.09581 15.3919 3.69581 15.2959 3.29581C15.2159 2.89581 15.0879 2.51981 14.9119 2.16781C14.7519 1.79981 14.5279 1.47981 14.2399 1.20781C13.9839 0.951812 13.7039 0.759812 13.3999 0.631812C13.1119 0.487812 12.8159 0.383812 12.5119 0.319812C12.2239 0.255812 11.9359 0.223812 11.6479 0.223812C11.3759 0.207812 11.1279 0.199812 10.9039 0.199812H2.91194C2.62394 0.199812 2.30394 0.239812 1.95194 0.319812C1.59994 0.399812 1.28794 0.575812 1.01594 0.847813C0.727942 1.13581 0.559941 1.43981 0.511941 1.75981C0.463941 2.07981 0.439941 2.39981 0.439941 2.71981V16.9998H3.60794ZM3.60794 8.52781V3.72781C3.60794 3.58381 3.61594 3.44781 3.63194 3.31981C3.64794 3.17581 3.71194 3.04781 3.82394 2.93581C3.95194 2.80781 4.07994 2.74381 4.20794 2.74381C4.33594 2.72781 4.45594 2.71981 4.56794 2.71981H9.67994C9.95194 2.71981 10.2799 2.75181 10.6639 2.81581C11.0479 2.86381 11.3759 3.02381 11.6479 3.29581C11.9199 3.56781 12.0879 3.92781 12.1519 4.37581C12.2159 4.82381 12.2479 5.23181 12.2479 5.59981C12.2479 5.75981 12.2399 5.94381 12.2239 6.15181C12.2239 6.35981 12.1999 6.56781 12.1519 6.77581C12.1199 6.98381 12.0639 7.19181 11.9839 7.39981C11.9199 7.59181 11.8239 7.75981 11.6959 7.90381C11.4239 8.22381 11.0959 8.40781 10.7119 8.45581C10.3439 8.50381 9.98394 8.52781 9.63194 8.52781H3.60794Z" fill="white"/>
<path d="M29.6609 0.0078125C29.1489 0.0078125 28.5969 0.0158129 28.0049 0.0318127C27.4289 0.0478125 26.8449 0.111813 26.2529 0.223812C25.6609 0.335813 25.0769 0.511812 24.5009 0.751812C23.9409 0.991812 23.4289 1.33581 22.9649 1.78381C22.5009 2.21581 22.1409 2.71181 21.8849 3.27181C21.6289 3.81581 21.4369 4.39181 21.3089 4.99981C21.1809 5.59181 21.1009 6.19981 21.0689 6.82381C21.0369 7.43181 21.0209 8.02381 21.0209 8.59981C21.0209 9.07981 21.0289 9.61581 21.0449 10.2078C21.0769 10.7998 21.1489 11.4078 21.2609 12.0318C21.3889 12.6398 21.5809 13.2398 21.8369 13.8318C22.1089 14.4238 22.4849 14.9518 22.9649 15.4158C23.4289 15.8638 23.9409 16.2078 24.5009 16.4478C25.0769 16.6878 25.6609 16.8638 26.2529 16.9758C26.8609 17.0878 27.4529 17.1518 28.0289 17.1678C28.6209 17.1838 29.1649 17.1918 29.6609 17.1918C30.1409 17.1918 30.6769 17.1838 31.2689 17.1678C31.8609 17.1518 32.4529 17.0878 33.0449 16.9758C33.6529 16.8638 34.2369 16.6878 34.7969 16.4478C35.3729 16.2078 35.8929 15.8638 36.3569 15.4158C36.7889 14.9998 37.1329 14.5118 37.3889 13.9518C37.6449 13.3918 37.8369 12.8078 37.9649 12.1998C38.0929 11.5918 38.1729 10.9838 38.2049 10.3758C38.2529 9.75181 38.2769 9.15981 38.2769 8.59981C38.2769 8.05581 38.2609 7.47181 38.2289 6.84781C38.1969 6.22381 38.1089 5.60781 37.9649 4.99981C37.8369 4.39181 37.6449 3.80781 37.3889 3.24781C37.1329 2.68781 36.7889 2.19981 36.3569 1.78381C35.8929 1.33581 35.3729 0.991812 34.7969 0.751812C34.2369 0.511812 33.6529 0.335813 33.0449 0.223812C32.4529 0.111813 31.8609 0.0478125 31.2689 0.0318127C30.6929 0.0158129 30.1569 0.0078125 29.6609 0.0078125ZM24.2849 8.59981C24.2849 7.30381 24.3729 6.30381 24.5489 5.59981C24.7409 4.87981 24.9969 4.31181 25.3169 3.89581C25.8129 3.28781 26.4369 2.91181 27.1889 2.76781C27.9409 2.60781 28.7569 2.52781 29.6369 2.52781C30.5009 2.52781 31.3169 2.60781 32.0849 2.76781C32.8529 2.91181 33.4849 3.28781 33.9809 3.89581C34.1089 4.05581 34.2369 4.25581 34.3649 4.49581C34.4929 4.73581 34.6049 5.03981 34.7009 5.40781C34.7969 5.77581 34.8689 6.22381 34.9169 6.75181C34.9809 7.26381 35.0129 7.87981 35.0129 8.59981C35.0129 9.27181 34.9809 9.86381 34.9169 10.3758C34.8689 10.8878 34.7969 11.3278 34.7009 11.6958C34.6049 12.0638 34.4929 12.3758 34.3649 12.6318C34.2529 12.8878 34.1249 13.1038 33.9809 13.2798C33.7249 13.5998 33.4369 13.8558 33.1169 14.0478C32.7969 14.2238 32.4449 14.3598 32.0609 14.4558C31.6929 14.5518 31.3009 14.6158 30.8849 14.6478C30.4849 14.6638 30.0689 14.6718 29.6369 14.6718C29.2049 14.6718 28.7809 14.6638 28.3649 14.6478C27.9489 14.6158 27.5569 14.5518 27.1889 14.4558C26.8209 14.3598 26.4769 14.2238 26.1569 14.0478C25.8369 13.8558 25.5569 13.5998 25.3169 13.2798C25.1729 13.1038 25.0369 12.8958 24.9089 12.6558C24.7969 12.3998 24.6929 12.0878 24.5969 11.7198C24.5009 11.3358 24.4209 10.8958 24.3569 10.3998C24.3089 9.88781 24.2849 9.28781 24.2849 8.59981Z" fill="white"/>
<path d="M57.9288 16.9998V14.4798H52.2408C51.2488 14.4798 50.3768 14.3758 49.6248 14.1678C48.8728 13.9598 48.2808 13.5278 47.8488 12.8718C47.7688 12.7438 47.6808 12.5758 47.5848 12.3678C47.4888 12.1598 47.4008 11.8958 47.3208 11.5758C47.2408 11.2558 47.1768 10.8718 47.1288 10.4238C47.0808 9.95981 47.0568 9.41581 47.0568 8.79181C47.0568 7.54381 47.1448 6.57581 47.3208 5.88781C47.5128 5.18381 47.7368 4.64781 47.9928 4.27981C48.2328 3.92781 48.5048 3.64781 48.8088 3.43981C49.1288 3.23181 49.4728 3.07181 49.8408 2.95981C50.2248 2.84781 50.6328 2.78381 51.0648 2.76781C51.4968 2.73581 51.9448 2.71981 52.4088 2.71981H57.6648V0.199812H50.9208C50.6168 0.199812 50.2408 0.215812 49.7928 0.247812C49.3448 0.279812 48.8648 0.367812 48.3528 0.511812C47.8408 0.655812 47.3288 0.871813 46.8168 1.15981C46.3048 1.43181 45.8408 1.81581 45.4248 2.31181C45.0728 2.72781 44.7848 3.19181 44.5608 3.70381C44.3528 4.19981 44.1928 4.73581 44.0808 5.31181C43.9688 5.87181 43.8888 6.45581 43.8408 7.06381C43.8088 7.65581 43.7928 8.24781 43.7928 8.83981C43.7928 9.30381 43.8088 9.80781 43.8408 10.3518C43.8728 10.8798 43.9448 11.4158 44.0568 11.9598C44.1688 12.5038 44.3368 13.0398 44.5608 13.5678C44.7848 14.0958 45.0968 14.5838 45.4968 15.0318C45.8808 15.4638 46.2968 15.8158 46.7448 16.0878C47.2088 16.3438 47.6728 16.5438 48.1368 16.6878C48.6168 16.8158 49.0888 16.9038 49.5528 16.9518C50.0168 16.9838 50.4488 16.9998 50.8488 16.9998H57.9288Z" fill="white"/>
<path d="M71.7331 16.9998V2.71981H78.3091V0.199812H62.0131V2.71981H68.5651V16.9998H71.7331Z" fill="white"/>
</svg>
